<svg xmlns="http://www.w3.org/2000/svg" width="256" height="256" viewBox="0 0 256 256">
  <defs><linearGradient id="j" x1="0" y1="0" x2="1" y2="1"><stop stop-color="#fff1c8"/><stop offset="1" stop-color="#d8ba7a"/></linearGradient></defs>
  <path d="M86 61h84l-7 29q23 18 23 48v55q0 24-24 24H94q-24 0-24-24v-55q0-30 23-48z" fill="url(#j)" stroke="#744522" stroke-width="9"/>
  <path d="M82 52q0-17 17-17h58q17 0 17 17v18H82z" fill="#9a6030" stroke="#603919" stroke-width="8"/>
  <path d="M93 132q35-34 70 0v54q-35 30-70 0z" fill="#eee0ad" stroke="#a3793d" stroke-width="6"/>
  <path d="M128 168c-31-7-28-39-3-43 24 3 31 32 3 43z" fill="#8f4a9e" stroke="#56305e" stroke-width="6"/>
  <path d="M128 166q-8 20-24 28M128 166q9 20 25 29M128 126q-9-17-1-31" fill="none" stroke="#56305e" stroke-width="6" stroke-linecap="round"/>
  <path d="M126 96q-18-9-25 5 14 14 27 3M128 97q15-14 27-2-9 16-27 10" fill="#6f7c3e" stroke="#485029" stroke-width="5"/>
</svg>
